<svg width="35" height="37" viewBox="0 0 35 37" fill="none" xmlns="http://www.w3.org/2000/svg">
<g clip-path="url(#clip0)">
<path d="M27.3465 25.9797C28.9293 25.9797 30.2149 24.5871 30.2149 22.8706V3.08402C30.2149 1.36751 28.9295 -0.0202637 27.3465 -0.0202637H9.08317C7.4988 -0.0202637 6.21631 1.36751 6.21631 3.08402V22.8706C6.21631 24.5871 7.4988 25.9797 9.08317 25.9797H27.3465Z" fill="white"/>
<path d="M9.08385 0.502563C7.77106 0.502563 6.70264 1.65841 6.70264 3.08238V22.869C6.70264 24.2929 7.77106 25.4488 9.08385 25.4488H27.3472C28.66 25.4488 29.7269 24.2929 29.7269 22.869V3.08238C29.7269 1.65841 28.66 0.502563 27.3472 0.502563H9.08385Z" fill="white"/>
<path d="M19.9047 12.6088C21.2661 12.6088 22.3708 11.4102 22.3708 9.93701C22.3708 8.45727 21.2659 7.26017 19.9047 7.26017L16.2668 7.25365V12.6088H19.9047ZM19.8532 3.96521C22.9355 3.96521 25.4306 6.66836 25.4306 10.0029C25.4306 13.3439 22.9355 16.0454 19.8532 16.0454L16.267 16.0406V21.7756H13.0542V3.96521H19.8532Z" fill="#314767"/>
</g>
<path d="M3.10352 33V32.4873L3.55762 32.3994V29.3379L3.10352 29.25V28.7344H5.13379C5.45996 28.7344 5.74121 28.792 5.97754 28.9072C6.21387 29.0205 6.39551 29.1797 6.52246 29.3848C6.64941 29.5879 6.71289 29.8252 6.71289 30.0967C6.71289 30.3682 6.64941 30.6064 6.52246 30.8115C6.39551 31.0146 6.21387 31.1729 5.97754 31.2861C5.74121 31.3975 5.45996 31.4531 5.13379 31.4531H4.41309V32.3994L4.87012 32.4873V33H3.10352ZM4.41309 30.7939H5.13379C5.37207 30.7939 5.55176 30.7295 5.67285 30.6006C5.7959 30.4697 5.85742 30.3037 5.85742 30.1025C5.85742 29.8975 5.7959 29.7285 5.67285 29.5957C5.55176 29.4609 5.37207 29.3936 5.13379 29.3936H4.41309V30.7939ZM6.25293 33V32.4873L6.55762 32.4434L7.91406 28.7344H8.79004L10.1377 32.4434L10.4424 32.4873V33H8.98926V32.4873L9.28516 32.4346L9.09766 31.8486H7.59766L7.41016 32.4346L7.70605 32.4873V33H6.25293ZM7.7998 31.2188H8.89551L8.39746 29.7568L8.35645 29.6279H8.33887L8.29492 29.7656L7.7998 31.2188ZM10.7266 33V32.4873L11.1807 32.3994V29.3379L10.7266 29.25V28.7344H12.748C13.2383 28.7344 13.623 28.8477 13.9023 29.0742C14.1816 29.2988 14.3213 29.6094 14.3213 30.0059C14.3213 30.2578 14.2568 30.4834 14.1279 30.6826C14.001 30.8818 13.8262 31.0371 13.6035 31.1484L14.1455 32.4023L14.5088 32.4873V33H13.4717L12.8154 31.3154H12.0361V32.3994L12.4932 32.4873V33H10.7266ZM12.0361 30.6562H12.7334C13.2236 30.6562 13.4688 30.4521 13.4688 30.0439C13.4688 29.8467 13.4082 29.6895 13.2871 29.5723C13.166 29.4531 12.9863 29.3936 12.748 29.3936H12.0361V30.6562ZM14.8516 33V32.4873L15.3057 32.3994V29.3379L14.8516 29.25V28.7344H16.5947V29.25L16.1611 29.3379V30.8057L17.6289 29.2939L17.6348 29.2852L17.2129 29.25V28.7344H18.9678V29.25L18.5664 29.3291L17.333 30.583L18.7012 32.4141L19.1201 32.4873V33H17.3066V32.4873L17.7051 32.4521H17.708L16.7676 31.1572L16.1611 31.7725V32.3994L16.5947 32.4873V33H14.8516ZM20.8516 33V32.4873L21.3057 32.3994V29.3379L20.8516 29.25V28.7344H22.5713L23.7344 31.708H23.752L24.877 28.7344H26.5996V29.25L26.1426 29.3379V32.3994L26.5996 32.4873V33H24.833V32.4873L25.3105 32.3994V31.582L25.3252 29.6572L25.3076 29.6543L24.0332 32.9414H23.3857L22.082 29.6807L22.0645 29.6836L22.1143 31.4941V32.3994L22.6182 32.4873V33H20.8516ZM26.9043 33V32.4873L27.3584 32.3994V29.3379L26.9043 29.25V28.7344H30.2148V29.8857H29.5586L29.5205 29.3936H28.2139V30.4658H29.6582V31.125H28.2139V32.3438H29.5908L29.6289 31.834H30.2793V33H26.9043ZM30.9209 31.5293V28.7344H31.7764V31.5293H30.9209ZM30.9209 33V32.25H31.7764V33H30.9209Z" fill="white"/>
<defs>
<clipPath id="clip0">
<rect width="24" height="26" fill="white" transform="translate(6)"/>
</clipPath>
</defs>
</svg>
