<svg width="24" height="26" viewBox="0 0 24 26" fill="none" xmlns="http://www.w3.org/2000/svg">
<g clip-path="url(#clip0)">
<path d="M21.3465 25.9797C22.9293 25.9797 24.2149 24.5871 24.2149 22.8706V3.08402C24.2149 1.36751 22.9295 -0.0202637 21.3465 -0.0202637H3.08317C1.4988 -0.0202637 0.216309 1.36751 0.216309 3.08402V22.8706C0.216309 24.5871 1.4988 25.9797 3.08317 25.9797H21.3465Z" fill="white"/>
<path d="M3.08385 0.502563C1.77106 0.502563 0.702637 1.65841 0.702637 3.08238V22.869C0.702637 24.2929 1.77106 25.4488 3.08385 25.4488H21.3472C22.66 25.4488 23.7269 24.2929 23.7269 22.869V3.08238C23.7269 1.65841 22.66 0.502563 21.3472 0.502563H3.08385Z" fill="white"/>
<path d="M13.9047 12.6088C15.2661 12.6088 16.3708 11.4102 16.3708 9.93701C16.3708 8.45727 15.2659 7.26017 13.9047 7.26017L10.2668 7.25365V12.6088H13.9047ZM13.8532 3.96521C16.9355 3.96521 19.4306 6.66836 19.4306 10.0029C19.4306 13.3439 16.9355 16.0454 13.8532 16.0454L10.267 16.0406V21.7756H7.0542V3.96521H13.8532Z" fill="#314767"/>
</g>
<defs>
<clipPath id="clip0">
<rect width="24" height="26" fill="white"/>
</clipPath>
</defs>
</svg>
